<?xml version="1.0" standalone="no"?>
<!DOCTYPE svg PUBLIC "-//W3C//DTD SVG 20010904//EN"
 "http://www.w3.org/TR/2001/REC-SVG-20010904/DTD/svg10.dtd">
<svg version="1.0" xmlns="http://www.w3.org/2000/svg"
 width="1440.000000pt" height="1440.000000pt" viewBox="0 0 1440.000000 1440.000000"
 preserveAspectRatio="xMidYMid meet">
<metadata>
Created by potrace 1.16, written by Peter Selinger 2001-2019
</metadata>
<g transform="translate(0.000000,1440.000000) scale(0.100000,-0.100000)"
fill="#000000" stroke="none">
<path d="M7225 14392 c6 -5 28 -15 50 -22 92 -30 405 -169 605 -269 691 -347
1304 -783 1854 -1321 1200 -1172 1959 -2675 2191 -4335 49 -351 59 -510 59
-960 1 -468 -6 -571 -60 -900 -72 -434 -168 -755 -357 -1190 -30 -71 -209
-424 -232 -458 l-18 -29 -2384 2384 -2383 2383 900 900 900 900 -564 564 -564
564 -25 -19 c-229 -177 -265 -202 -412 -280 -366 -197 -721 -287 -1135 -288
-229 0 -390 19 -585 69 l-130 34 -1785 -1784 -1785 -1785 1015 -1015 1015
-1015 675 675 675 675 2383 -2383 2384 -2384 -39 -23 c-60 -36 -350 -183 -433
-220 -499 -219 -1028 -360 -1550 -412 -201 -20 -912 -17 -1146 5 -762 70
-1475 243 -2179 529 -245 99 -681 310 -842 406 -26 16 -93 55 -148 87 -142 83
-477 306 -625 415 -284 211 -519 412 -775 662 l-181 177 -560 -560 c-538 -539
-558 -560 -545 -581 8 -13 71 -104 142 -203 218 -307 476 -618 717 -866 72
-75 132 -140 132 -145 0 -6 -27 -36 -60 -69 l-60 -59 -197 -1 c-172 0 -210 -3
-287 -23 -194 -49 -385 -158 -527 -301 -219 -220 -329 -485 -329 -796 0 -311
110 -577 329 -796 219 -219 485 -329 796 -329 311 0 576 110 796 329 141 141
243 315 296 510 25 88 27 113 28 299 l1 203 99 99 98 99 86 -61 c641 -452
1356 -813 2108 -1064 227 -76 294 -96 558 -164 423 -110 879 -187 1385 -232
197 -18 1015 -18 1205 0 742 69 1379 216 2035 470 439 169 940 430 1348 700
l144 95 644 -644 644 -644 890 890 c705 705 890 895 890 915 0 20 -133 158
-632 657 l-631 631 100 154 c607 926 978 1925 1130 3043 l28 210 0 705 0 705
-28 210 c-83 610 -208 1103 -431 1695 -45 121 -147 354 -230 525 -610 1260
-1579 2319 -2787 3047 -1032 622 -2272 987 -3449 1014 -170 4 -252 3 -245 -4z"/>
<path d="M8307 8593 c-14 -4 -15 -8 -7 -18 8 -9 7 -14 -5 -19 -8 -3 -15 -13
-15 -22 0 -10 -7 -25 -16 -35 -17 -19 -7 -52 21 -63 8 -3 15 -11 15 -19 0 -7
11 -24 24 -36 14 -13 22 -29 20 -36 -3 -7 3 -19 14 -27 11 -7 27 -30 35 -51 9
-20 21 -37 26 -37 6 0 11 -6 11 -13 0 -14 61 -72 73 -69 4 1 7 -2 7 -7 0 -5 6
-9 13 -8 33 1 46 -5 52 -23 4 -11 10 -18 15 -15 5 3 33 -17 62 -45 60 -57 96
-72 110 -46 5 9 15 16 23 16 8 0 22 14 30 30 9 17 19 28 24 26 4 -3 15 4 24
15 25 28 43 24 23 -6 -16 -24 -16 -25 8 -25 28 0 45 -19 26 -30 -8 -5 -9 -10
-2 -14 6 -3 19 7 28 24 10 16 21 30 25 30 4 0 9 9 12 21 4 16 11 19 27 14 20
-6 50 9 50 26 0 5 -13 7 -30 5 -27 -3 -29 -1 -24 20 4 15 2 24 -5 24 -7 0 -9
9 -5 25 3 14 2 25 -2 25 -5 0 -9 16 -10 35 0 23 -7 40 -20 49 -22 17 -34 4
-26 -26 3 -15 1 -19 -9 -16 -8 3 -15 18 -16 34 -2 16 -7 53 -12 83 -6 30 -8
58 -5 62 3 5 1 17 -5 26 -9 17 -10 17 -16 1 -8 -20 -59 -25 -70 -7 -4 6 -30 9
-59 8 -29 -1 -58 1 -64 5 -7 4 -12 2 -12 -4 0 -6 -5 -8 -12 -4 -7 4 -21 9 -32
10 -12 1 -41 9 -65 18 -24 10 -50 15 -58 12 -8 -3 -11 -1 -8 4 7 12 -46 34
-54 23 -12 -15 -31 -13 -51 7 -11 11 -32 20 -46 20 -19 0 -25 4 -20 15 3 8 4
14 3 14 -1 -1 -10 -3 -20 -6z"/>
<path d="M9310 7693 c0 -10 5 -24 11 -30 9 -9 6 -11 -12 -7 -22 5 -22 4 -6 -6
18 -11 18 -12 -1 -26 -14 -9 -20 -23 -18 -40 3 -30 21 -44 57 -44 15 0 32 -7
39 -15 7 -8 20 -14 29 -13 10 2 15 -4 14 -15 -1 -21 38 -43 62 -33 15 5 14 10
-7 38 -13 18 -23 38 -23 43 0 6 -13 9 -28 9 -25 -1 -28 1 -22 23 3 14 2 22 -3
19 -5 -3 -8 21 -6 54 3 52 1 60 -14 60 -10 0 -23 -5 -30 -12 -8 -8 -15 -8 -27
2 -13 10 -15 9 -15 -7z"/>
<path d="M4952 6451 c-16 -12 -21 -22 -16 -35 5 -12 2 -23 -9 -31 -14 -10 -15
-18 -6 -49 6 -21 19 -46 30 -57 10 -10 19 -23 19 -29 0 -15 70 -110 81 -110 5
0 9 -6 9 -14 0 -8 10 -18 23 -22 12 -4 34 -18 49 -33 14 -14 52 -48 83 -76 31
-27 68 -61 82 -74 l27 -24 23 29 c23 29 30 68 14 78 -4 3 -11 19 -14 36 -4 18
-13 30 -22 30 -8 0 -15 4 -15 8 0 5 -12 14 -26 21 -19 8 -23 15 -16 24 11 13
2 37 -14 40 -5 1 -8 5 -6 10 1 4 -9 12 -23 19 -17 8 -22 15 -15 23 6 7 3 16
-9 25 -16 11 -17 17 -8 32 9 14 9 20 0 26 -7 4 -13 24 -15 44 -2 32 -4 35 -20
27 -14 -7 -18 -6 -18 5 0 8 -10 18 -22 22 -13 3 -35 15 -50 25 -14 11 -34 19
-44 19 -9 0 -25 6 -33 14 -14 13 -19 13 -39 -3z"/>
<path d="M5701 6436 c10 -10 161 -90 248 -132 52 -25 115 -63 141 -84 58 -49
94 -64 120 -50 10 6 30 11 44 12 15 1 26 5 26 8 0 5 -36 27 -120 75 -19 11
-46 28 -60 37 -14 9 -45 24 -70 34 -25 9 -52 23 -60 29 -15 12 -43 21 -180 55
-77 20 -97 23 -89 16z"/>
<path d="M10706 6275 c6 -15 -33 -37 -48 -28 -5 2 -8 -6 -8 -18 0 -17 -5 -20
-25 -17 -18 4 -30 -2 -46 -24 -13 -16 -30 -27 -39 -26 -22 4 -23 -5 -2 -42 16
-28 52 -42 52 -20 0 6 -4 10 -10 10 -5 0 -10 7 -10 15 0 10 10 15 30 15 17 0
30 5 30 10 0 6 -4 10 -8 10 -4 0 -8 8 -8 19 0 23 18 21 46 -4 12 -11 18 -25
15 -35 -4 -12 1 -19 17 -24 33 -8 38 -8 38 6 0 6 8 20 17 30 15 17 15 19 -3
33 -15 11 -16 14 -4 15 11 0 16 12 17 41 2 35 0 39 -18 34 -11 -4 -19 -2 -19
4 0 6 -4 11 -10 11 -5 0 -7 -7 -4 -15z"/>
<path d="M6227 5928 c-9 -16 -14 -34 -11 -39 3 -5 3 -23 -1 -39 -5 -21 -13
-30 -26 -30 -11 0 -17 -5 -14 -10 3 -6 0 -12 -7 -15 -7 -3 -14 -16 -14 -30 -3
-37 -12 -55 -29 -55 -13 0 -21 32 -16 63 1 5 -3 6 -7 3 -12 -7 -48 32 -39 41
4 3 7 2 7 -4 0 -14 32 -12 48 3 10 11 7 16 -18 29 -16 8 -29 19 -29 23 4 24
-2 35 -12 25 -7 -7 -15 -54 -19 -105 -4 -51 -11 -102 -14 -113 -10 -29 41 -79
151 -150 106 -69 143 -99 164 -134 15 -26 17 -26 135 -26 214 -1 395 -15 485
-37 77 -20 92 -20 143 -9 31 7 56 15 56 18 0 3 -14 18 -32 35 -24 23 -55 35
-137 56 -58 14 -114 33 -124 41 -10 9 -34 16 -54 18 -19 1 -40 6 -46 12 -7 5
-29 12 -50 16 -21 4 -42 15 -47 25 -6 11 -40 27 -85 41 -61 18 -73 25 -64 35
9 11 8 14 -2 15 -54 5 -73 10 -80 21 -5 7 -9 9 -9 4 0 -5 -10 2 -22 15 -16 16
-35 25 -61 26 -54 2 -68 21 -73 104 -2 40 -6 75 -9 79 -2 4 -7 22 -10 41 -3
18 -7 34 -8 36 -1 1 -10 -12 -20 -29z"/>
<path d="M5600 5795 c-5 -14 -21 -30 -35 -37 -22 -10 -25 -16 -19 -42 4 -17 8
-51 9 -76 1 -25 5 -52 8 -60 3 -8 7 -24 9 -34 3 -19 16 -29 53 -41 19 -6 18
-7 -8 -23 -29 -18 -35 -40 -15 -60 8 -8 8 -15 -3 -28 -12 -16 -12 -17 4 -11
24 9 44 -2 26 -14 -12 -7 -12 -9 0 -9 8 0 22 6 30 14 23 19 61 30 61 16 0 -6
-7 -13 -15 -16 -8 -4 -15 -11 -15 -16 0 -6 7 -8 14 -5 11 4 13 1 9 -10 -4 -11
-2 -14 8 -11 8 3 13 12 11 20 -1 8 8 20 20 26 13 6 39 21 58 33 l35 23 -27
-28 c-16 -16 -28 -33 -28 -37 0 -5 -17 -24 -37 -44 -34 -31 -36 -34 -16 -35
12 0 28 -3 36 -6 10 -3 18 3 22 18 4 13 14 31 22 40 8 9 12 21 9 26 -3 5 5 19
18 31 20 19 22 26 13 45 -7 15 -17 21 -29 18 -24 -6 -23 9 3 42 12 15 19 30
15 33 -3 3 0 13 7 21 9 12 9 16 0 19 -18 6 -16 24 5 39 16 13 16 13 -1 14 -14
0 -16 4 -8 19 13 23 -11 63 -24 41 -4 -7 -2 -16 6 -21 7 -4 10 -11 7 -14 -10
-11 -57 27 -64 51 -3 11 -20 29 -37 39 -18 10 -38 27 -45 37 -7 10 -17 16 -22
13 -4 -3 -13 2 -20 10 -19 22 -39 18 -50 -10z"/>
<path d="M6984 5093 c-8 -30 -13 -60 -17 -110 -1 -18 -5 -35 -9 -38 -12 -12 4
-44 19 -38 13 5 13 3 4 -15 -7 -12 -14 -22 -17 -22 -3 0 -2 5 1 10 3 6 2 10
-4 10 -6 0 -13 -11 -17 -25 -7 -29 -21 -32 -41 -7 -8 9 -12 12 -9 7 2 -6 -9
-17 -26 -24 -26 -12 -88 -82 -88 -101 0 -4 29 -6 65 -4 38 1 63 -1 60 -7 -4
-5 15 -9 41 -9 37 0 45 -3 36 -12 -16 -16 -15 -28 3 -28 8 0 15 7 15 16 0 11
5 14 16 10 9 -3 19 -6 24 -6 4 0 10 -9 13 -21 5 -17 9 -19 26 -9 19 10 25 7
23 -11 -1 -6 6 -8 48 -12 14 -1 30 -6 37 -10 19 -12 57 2 69 26 5 13 7 35 3
50 -5 20 -4 27 6 27 15 0 16 48 1 65 -5 6 -27 9 -49 6 -34 -3 -39 -1 -34 13 8
20 -3 20 -73 2 -30 -8 -58 -12 -62 -10 -3 2 -10 -1 -14 -8 -5 -7 -12 3 -19 28
-9 30 -9 46 1 71 10 26 10 34 -2 44 -17 14 -18 51 -3 66 6 6 11 27 11 46 0 60
-24 78 -38 30z"/>
<path d="M6440 4921 c-6 -16 -20 -37 -31 -47 -21 -19 -25 -34 -9 -34 6 0 10 7
10 15 0 9 11 20 25 25 14 5 25 14 25 20 0 6 5 8 10 5 6 -4 8 -15 5 -25 -3 -10
-2 -21 3 -24 6 -3 13 4 17 17 4 14 8 17 12 9 3 -7 -4 -24 -16 -36 -12 -12 -21
-27 -21 -34 0 -6 -7 -9 -15 -6 -17 7 -92 -67 -131 -128 -13 -21 -28 -38 -33
-38 -14 0 -23 -32 -11 -44 14 -14 13 -20 -10 -46 -24 -28 -27 -88 -5 -96 11
-5 14 -15 9 -39 -4 -25 -2 -34 11 -39 10 -3 15 -12 11 -21 -3 -8 -1 -15 4 -15
6 0 10 -5 10 -11 0 -17 27 -39 49 -39 29 0 43 -31 24 -52 -15 -17 -14 -18 18
-18 42 0 128 66 153 117 18 36 20 47 6 38 -21 -13 -9 22 15 45 14 13 25 29 25
37 0 7 4 13 8 13 9 0 82 142 82 159 0 6 14 36 30 66 33 61 38 102 15 111 -8 4
-15 12 -15 20 0 16 -69 53 -87 47 -6 -2 -22 11 -35 29 -24 35 -68 49 -68 23 0
-22 -23 -18 -38 5 -17 28 -38 25 -52 -9z"/>
<path d="M6900 4424 c0 -40 -16 -77 -31 -69 -5 4 -9 16 -9 28 -1 19 -2 19 -10
6 -8 -14 -23 -117 -47 -319 -2 -25 -11 -59 -18 -75 -33 -73 -35 -85 -19 -85
21 0 74 32 74 45 0 5 13 23 30 38 55 52 111 197 73 190 -13 -3 -22 73 -11 90
19 30 0 187 -22 187 -6 0 -10 -16 -10 -36z"/>
<path d="M13927 3341 c-2 -11 -15 -21 -28 -23 -13 -2 -23 -9 -21 -16 2 -14
-24 -16 -33 -2 -3 6 -12 10 -18 9 -9 0 -9 -2 1 -6 6 -2 12 -11 12 -18 0 -8 9
-17 20 -20 21 -7 28 -35 9 -35 -5 0 -7 -5 -3 -12 4 -7 3 -8 -4 -4 -7 4 -12 1
-12 -6 0 -8 -7 -24 -16 -36 -15 -21 -18 -22 -33 -8 -14 13 -20 13 -30 3 -11
-10 -11 -8 0 10 7 11 18 19 25 16 6 -2 24 7 40 20 24 21 26 27 16 40 -16 18
-52 29 -52 15 0 -17 -67 -78 -85 -78 -8 0 -15 -4 -15 -10 0 -5 6 -10 14 -10 8
0 21 -9 29 -21 10 -13 17 -17 22 -10 10 17 25 2 25 -25 0 -14 -4 -22 -10 -19
-6 4 -10 -6 -10 -24 0 -16 6 -31 13 -34 9 -3 9 -9 1 -23 -10 -16 -7 -23 19
-47 17 -15 42 -30 54 -33 14 -4 23 -14 23 -25 0 -10 7 -19 15 -19 8 0 15 -4
15 -10 0 -5 -7 -10 -15 -10 -8 0 -15 -4 -15 -10 0 -13 13 -13 27 1 8 8 14 6
22 -9 6 -10 7 -22 4 -26 -10 -9 6 -7 28 4 13 7 19 7 20 0 3 -21 5 -26 19 -46
19 -26 44 -36 58 -22 8 8 9 5 5 -10 -3 -13 -15 -22 -32 -25 -14 -2 63 -5 172
-6 l197 -1 0 215 c0 189 -2 215 -16 215 -13 0 -13 2 -1 14 7 8 15 37 16 65 1
44 -1 50 -16 44 -10 -4 -21 -11 -24 -16 -4 -5 -10 0 -14 12 -3 11 -11 21 -16
21 -12 0 -11 -14 2 -27 16 -16 3 -47 -17 -39 -9 4 -23 1 -31 -5 -20 -17 -30
-1 -11 18 16 15 15 18 -8 36 -24 19 -25 19 -39 1 -14 -18 -14 -18 -15 2 0 25
-23 37 -38 22 -8 -8 -17 -4 -32 15 -21 26 -50 36 -50 18 0 -5 8 -17 17 -27 16
-16 16 -16 -4 -10 -17 6 -22 2 -25 -16 -2 -13 -7 -22 -13 -20 -5 2 -9 10 -7
18 2 8 -5 14 -14 14 -10 0 -14 -5 -11 -15 5 -12 2 -12 -18 -3 -26 12 -33 32
-14 44 8 4 4 13 -12 25 -31 24 -55 24 -62 0z"/>
</g>
</svg>
